<svg width="40" height="40" viewBox="0 0 40 40" fill="none" xmlns="http://www.w3.org/2000/svg">
<path d="M17.8385 30.4948L33.8281 14.5052C34.1579 14.1754 34.323 13.7848 34.323 13.3333C34.323 12.8819 34.1579 12.4913 33.8281 12.1615L31.1719 9.50523C30.842 9.17538 30.4514 9.01046 30 9.01046C29.5486 9.01046 29.1579 9.17538 28.8281 9.50523L16.6667 21.6667L11.1719 16.1719C10.842 15.842 10.4514 15.677 9.99999 15.677C9.54862 15.677 9.15801 15.842 8.82816 16.1719L6.17187 18.8281C5.84201 19.158 5.67708 19.5486 5.67708 20C5.67708 20.4513 5.84201 20.842 6.17187 21.1719L15.4947 30.4948C15.8247 30.8246 16.2153 30.9896 16.6667 30.9896C17.118 30.9896 17.5087 30.8246 17.8385 30.4948ZM40 7.49995V32.5C40 34.5659 39.2664 36.3325 37.7995 37.7995C36.3325 39.2664 34.5659 40 32.5 40H7.49995C5.43403 40 3.66753 39.2664 2.20052 37.7995C0.733501 36.3325 0 34.5659 0 32.5V7.49995C0 5.43403 0.733501 3.66753 2.20052 2.20052C3.66753 0.733501 5.43403 0 7.49995 0H32.5C34.5659 0 36.3325 0.733501 37.7995 2.20052C39.2664 3.66753 40 5.43403 40 7.49995Z" fill="#F3CD20"/>
</svg>
