<svg width="154" height="98" viewBox="0 0 154 98" fill="none" xmlns="http://www.w3.org/2000/svg">
<path d="M105.126 94.1869C130.148 94.1869 150.433 73.9587 150.433 49.0061C150.433 24.0534 130.148 3.82527 105.126 3.82527C80.1035 3.82527 59.8189 24.0534 59.8189 49.0061C59.8189 73.9587 80.1035 94.1869 105.126 94.1869Z" fill="white"/>
<path d="M139.361 14.2858C130.826 5.79615 119.456 0.737189 107.419 0.0744707C95.3824 -0.588347 83.5223 3.19135 74.102 10.6924H39.3899C38.7323 10.6924 38.1016 10.9528 37.6367 11.4165C37.1717 11.8803 36.9105 12.5091 36.9105 13.1649C36.9105 13.8207 37.1717 14.4495 37.6367 14.9132C38.1016 15.377 38.7323 15.6374 39.3899 15.6374H68.8125C66.0657 18.5818 63.695 21.8539 61.7544 25.3792H22.7612C22.1036 25.3792 21.4728 25.6397 21.0079 26.1034C20.5429 26.5671 20.2817 27.196 20.2817 27.8517C20.2817 28.5075 20.5429 29.1364 21.0079 29.6001C21.4728 30.0638 22.1036 30.3243 22.7612 30.3243H59.3742C56.3727 37.672 55.1987 45.6348 55.9524 53.5331H39.423C38.7654 53.5331 38.1347 53.7936 37.6697 54.2573C37.2047 54.721 36.9435 55.3499 36.9435 56.0056C36.9435 56.6614 37.2047 57.2903 37.6697 57.754C38.1347 58.2177 38.7654 58.4782 39.423 58.4782H56.6964C57.3336 61.6704 58.2916 64.7906 59.5559 67.7914H22.7612C22.1036 67.7914 21.4728 68.0515 21.0079 68.5153C20.5429 68.979 20.2817 69.6085 20.2817 70.2639C20.2817 70.9193 20.5429 71.5488 21.0079 72.0125C21.4728 72.4763 22.1036 72.7364 22.7612 72.7364H61.9858C63.8652 76.1324 66.1521 79.2871 68.796 82.132H16.7444C16.0868 82.132 15.4561 82.3922 14.9912 82.8559C14.5261 83.3197 14.265 83.9492 14.265 84.6046C14.265 85.2599 14.5261 85.8895 14.9912 86.3532C15.4561 86.817 16.0868 87.0771 16.7444 87.0771H72.4656C72.8998 87.0721 73.3259 86.958 73.7052 86.7474C83.4338 94.7926 95.9021 98.7784 108.508 97.8738C121.114 96.9692 132.882 91.2437 141.354 81.8927C149.827 72.5408 154.351 60.2872 153.979 47.6895C153.607 35.0918 148.371 23.1242 139.361 14.2858ZM135.857 79.9068C129.697 86.0444 121.851 90.2229 113.309 91.9149C104.768 93.606 95.9161 92.7342 87.8721 89.4096C79.8279 86.0851 72.9528 80.4569 68.1158 73.2359C63.2787 66.0159 60.697 57.527 60.697 48.8435C60.697 40.1601 63.2787 31.6715 68.1158 24.451C72.9528 17.2304 79.8279 11.602 87.8721 8.27742C95.9161 4.95271 104.768 4.08107 113.309 5.77252C121.851 7.46397 129.697 11.6426 135.857 17.7803C144.102 26.0271 148.732 37.1978 148.732 48.8435C148.732 60.4893 144.102 71.66 135.857 79.9068Z" fill="#191919"/>
<path d="M104.715 12.0605C97.4217 12.0605 90.2913 14.2172 84.2269 18.2582C78.1624 22.2991 73.4358 28.0425 70.6445 34.7622C67.8534 41.4819 67.1231 48.8761 68.5461 56.0097C69.9689 63.1433 73.4813 69.6959 78.6386 74.8386C83.796 79.9822 90.3669 83.4845 97.5202 84.9035C104.674 86.3224 112.089 85.5946 118.827 82.8112C125.566 80.0269 131.325 75.3142 135.377 69.2659C139.43 63.2187 141.592 56.1086 141.592 48.8353C141.58 39.0861 137.69 29.7398 130.777 22.846C123.864 15.9523 114.491 12.0736 104.715 12.0605ZM107.194 80.4837V77.5991C107.194 76.9437 106.933 76.3141 106.468 75.8504C106.003 75.3867 105.373 75.1265 104.715 75.1265C104.057 75.1265 103.427 75.3867 102.962 75.8504C102.497 76.3141 102.235 76.9437 102.235 77.5991V80.4837C94.6714 79.8859 87.5672 76.621 82.197 71.2748C76.8268 65.9285 73.5411 58.8502 72.9285 51.3078H75.8709C76.5284 51.3078 77.1591 51.0474 77.624 50.5836C78.089 50.1199 78.3503 49.491 78.3503 48.8353C78.3503 48.1795 78.089 47.5507 77.624 47.0869C77.1591 46.6232 76.5284 46.3627 75.8709 46.3627H72.9285C73.5266 38.8104 76.8063 31.7183 82.1783 26.3614C87.5502 21.0044 94.6624 17.7338 102.235 17.1374V20.0715C102.235 20.7273 102.497 21.3561 102.962 21.8198C103.427 22.2836 104.057 22.544 104.715 22.544C105.373 22.544 106.003 22.2836 106.468 21.8198C106.933 21.3561 107.194 20.7273 107.194 20.0715V17.1374C114.768 17.7338 121.879 21.0044 127.252 26.3614C132.624 31.7183 135.904 38.8104 136.501 46.3627H133.559C132.901 46.3627 132.271 46.6232 131.806 47.0869C131.341 47.5507 131.079 48.1795 131.079 48.8353C131.079 49.491 131.341 50.1199 131.806 50.5836C132.271 51.0474 132.901 51.3078 133.559 51.3078H136.501C135.889 58.8502 132.603 65.9285 127.233 71.2748C121.863 76.621 114.759 79.8859 107.194 80.4837Z" fill="#191919"/>
<path d="M118.336 54.6045L107.938 48.0111L118.732 26.5825C118.93 26.0108 118.911 25.3866 118.678 24.8281C118.446 24.2695 118.016 23.8152 117.47 23.5513C116.925 23.2874 116.301 23.2321 115.717 23.3957C115.133 23.5595 114.629 23.9308 114.302 24.4396L102.5 47.7309C102.223 48.2774 102.159 48.9071 102.321 49.4979C102.483 50.0886 102.858 50.5985 103.376 50.9287L115.657 58.7749C116.052 59.0248 116.511 59.1564 116.979 59.154C117.516 59.1562 118.038 58.9851 118.469 58.6662C118.899 58.3474 119.214 57.8981 119.367 57.3857C119.519 56.8732 119.502 56.3252 119.315 55.8238C119.129 55.3224 118.786 54.8946 118.336 54.6045ZM31.2574 55.9891C31.2574 55.3334 30.9962 54.7045 30.5312 54.2408C30.0662 53.7771 29.4356 53.5166 28.778 53.5166H2.47944C1.82185 53.5166 1.19119 53.7771 0.726206 54.2408C0.261227 54.7045 0 55.3334 0 55.9891C0 56.6449 0.261227 57.2738 0.726206 57.7375C1.19119 58.2012 1.82185 58.4617 2.47944 58.4617H28.8111C29.4629 58.453 30.085 58.1887 30.5429 57.726C31.0008 57.2631 31.2574 56.6393 31.2574 55.9891ZM14.6287 15.6209H28.8111C29.4687 15.6209 30.0993 15.3605 30.5643 14.8968C31.0292 14.433 31.2905 13.8042 31.2905 13.1484C31.2905 12.4926 31.0292 11.8638 30.5643 11.4001C30.0993 10.9363 29.4687 10.6759 28.8111 10.6759H14.6287C13.9711 10.6759 13.3404 10.9363 12.8755 11.4001C12.4105 11.8638 12.1493 12.4926 12.1493 13.1484C12.1493 13.8042 12.4105 14.433 12.8755 14.8968C13.3404 15.3605 13.9711 15.6209 14.6287 15.6209ZM11.9344 44.2199H44.6133C45.2709 44.2199 45.9016 43.9594 46.3666 43.4957C46.8315 43.032 47.0928 42.4031 47.0928 41.7474C47.0928 41.0916 46.8315 40.4627 46.3666 39.999C45.9016 39.5353 45.2709 39.2748 44.6133 39.2748H11.9344C11.2768 39.2748 10.6461 39.5353 10.1812 39.999C9.71613 40.4627 9.45494 41.0916 9.45494 41.7474C9.45494 42.4031 9.71613 43.032 10.1812 43.4957C10.6461 43.9594 11.2768 44.2199 11.9344 44.2199Z" fill="#191919"/>
</svg>
