<svg width="166" height="166" viewBox="0 0 166 166" fill="none" xmlns="http://www.w3.org/2000/svg">
<circle cx="111.5" cy="84.5" r="45.5" fill="white"/>
<path d="M145.881 49.5344C137.31 40.9848 125.891 35.8901 113.803 35.2227C101.715 34.5552 89.8044 38.3616 80.344 45.9156H45.484C44.8236 45.9156 44.1902 46.1779 43.7233 46.6449C43.2563 47.1119 42.994 47.7452 42.994 48.4056C42.994 49.066 43.2563 49.6993 43.7233 50.1663C44.1902 50.6333 44.8236 50.8956 45.484 50.8956H75.032C72.2734 53.8608 69.8926 57.156 67.9438 60.7062H28.7844C28.124 60.7062 27.4906 60.9685 27.0237 61.4355C26.5567 61.9025 26.2944 62.5358 26.2944 63.1962C26.2944 63.8566 26.5567 64.4899 27.0237 64.9569C27.4906 65.4239 28.124 65.6862 28.7844 65.6862H65.5534C62.5391 73.0858 61.3601 81.1049 62.1171 89.059H45.5172C44.8568 89.059 44.2234 89.3213 43.7565 89.7883C43.2895 90.2553 43.0272 90.8886 43.0272 91.549C43.0272 92.2094 43.2895 92.8427 43.7565 93.3097C44.2234 93.7767 44.8568 94.039 45.5172 94.039H62.8642C63.5041 97.2538 64.4662 100.396 65.7359 103.418H28.7844C28.124 103.418 27.4906 103.68 27.0237 104.147C26.5567 104.614 26.2944 105.248 26.2944 105.908C26.2944 106.568 26.5567 107.202 27.0237 107.669C27.4906 108.136 28.124 108.398 28.7844 108.398H68.1762C70.0636 111.818 72.3602 114.995 75.0154 117.86H22.742C22.0816 117.86 21.4482 118.122 20.9813 118.589C20.5143 119.056 20.252 119.69 20.252 120.35C20.252 121.01 20.5143 121.644 20.9813 122.111C21.4482 122.578 22.0816 122.84 22.742 122.84H78.7006C79.1367 122.835 79.5646 122.72 79.9455 122.508C89.7155 130.61 102.237 134.624 114.897 133.713C127.556 132.802 139.374 127.036 147.883 117.619C156.392 108.201 160.935 95.8608 160.561 83.1741C160.188 70.4874 154.929 58.4353 145.881 49.5344ZM142.362 115.619C136.176 121.8 128.296 126.008 119.718 127.712C111.141 129.415 102.251 128.537 94.1728 125.189C86.0943 121.841 79.1899 116.173 74.3323 108.901C69.4746 101.63 66.8819 93.0811 66.8819 84.3363C66.8819 75.5915 69.4746 67.043 74.3323 59.7714C79.1899 52.4998 86.0943 46.8317 94.1728 43.4836C102.251 40.1354 111.141 39.2576 119.718 40.961C128.296 42.6644 136.176 46.8726 142.362 53.0536C150.642 61.3587 155.292 72.6083 155.292 84.3363C155.292 96.0643 150.642 107.314 142.362 115.619Z" fill="black"/>
<path d="M111.087 47.2934C103.763 47.2934 96.6023 49.4654 90.512 53.5349C84.4217 57.6043 79.6749 63.3883 76.8718 70.1555C74.0688 76.9227 73.3354 84.3691 74.7644 91.5531C76.1933 98.7371 79.7206 105.336 84.8999 110.515C90.0793 115.695 96.6782 119.222 103.862 120.651C111.046 122.08 118.493 121.347 125.26 118.544C132.027 115.74 137.811 110.994 141.88 104.903C145.95 98.813 148.122 91.6527 148.122 84.328C148.109 74.5099 144.203 65.0976 137.26 58.1551C130.318 51.2127 120.905 47.3066 111.087 47.2934ZM113.577 116.2V113.295C113.577 112.635 113.315 112.001 112.848 111.534C112.381 111.067 111.748 110.805 111.087 110.805C110.427 110.805 109.794 111.067 109.327 111.534C108.86 112.001 108.597 112.635 108.597 113.295V116.2C101.001 115.598 93.8666 112.31 88.4735 106.926C83.0804 101.542 79.7807 94.4137 79.1655 86.818H82.1204C82.7807 86.818 83.4141 86.5557 83.881 86.0887C84.348 85.6217 84.6104 84.9884 84.6104 84.328C84.6104 83.6676 84.348 83.0343 83.881 82.5673C83.4141 82.1003 82.7807 81.838 82.1204 81.838H79.1655C79.7661 74.2323 83.0598 67.0901 88.4547 61.6953C93.8495 56.3005 100.992 53.0068 108.597 52.4062V55.361C108.597 56.0214 108.86 56.6547 109.327 57.1217C109.794 57.5887 110.427 57.851 111.087 57.851C111.748 57.851 112.381 57.5887 112.848 57.1217C113.315 56.6547 113.577 56.0214 113.577 55.361V52.4062C121.183 53.0068 128.325 56.3005 133.72 61.6953C139.115 67.0901 142.409 74.2323 143.009 81.838H140.054C139.394 81.838 138.761 82.1003 138.294 82.5673C137.827 83.0343 137.564 83.6676 137.564 84.328C137.564 84.9884 137.827 85.6217 138.294 86.0887C138.761 86.5557 139.394 86.818 140.054 86.818H143.009C142.394 94.4137 139.094 101.542 133.701 106.926C128.308 112.31 121.174 115.598 113.577 116.2Z" fill="black"/>
<path d="M124.766 90.138L114.324 83.498L125.164 61.918C125.363 61.3423 125.344 60.7137 125.11 60.1512C124.877 59.5887 124.445 59.1312 123.897 58.8654C123.349 58.5996 122.723 58.5439 122.136 58.7087C121.55 58.8736 121.044 59.2476 120.715 59.76L108.863 83.2158C108.585 83.7662 108.521 84.4003 108.683 84.9953C108.846 85.5902 109.223 86.1037 109.743 86.4362L122.076 94.3378C122.473 94.5895 122.934 94.722 123.404 94.7196C123.943 94.7218 124.467 94.5495 124.9 94.2284C125.332 93.9073 125.648 93.4548 125.802 92.9388C125.955 92.4227 125.937 91.8708 125.75 91.3659C125.563 90.8609 125.218 90.4301 124.766 90.138ZM37.3169 91.5324C37.3169 90.872 37.0545 90.2387 36.5876 89.7717C36.1206 89.3047 35.4873 89.0424 34.8269 89.0424H8.41627C7.75588 89.0424 7.12254 89.3047 6.65557 89.7717C6.18861 90.2387 5.92627 90.872 5.92627 91.5324C5.92627 92.1928 6.18861 92.8261 6.65557 93.2931C7.12254 93.7601 7.75588 94.0224 8.41627 94.0224H34.8601C35.5147 94.0137 36.1395 93.7475 36.5993 93.2815C37.0592 92.8154 37.3169 92.1871 37.3169 91.5324ZM20.6173 50.879H34.8601C35.5205 50.879 36.1538 50.6167 36.6208 50.1497C37.0877 49.6827 37.3501 49.0494 37.3501 48.389C37.3501 47.7286 37.0877 47.0953 36.6208 46.6283C36.1538 46.1613 35.5205 45.899 34.8601 45.899H20.6173C19.9569 45.899 19.3235 46.1613 18.8566 46.6283C18.3896 47.0953 18.1273 47.7286 18.1273 48.389C18.1273 49.0494 18.3896 49.6827 18.8566 50.1497C19.3235 50.6167 19.9569 50.879 20.6173 50.879ZM17.9115 79.68H50.7297C51.3901 79.68 52.0234 79.4177 52.4904 78.9507C52.9573 78.4837 53.2197 77.8504 53.2197 77.19C53.2197 76.5296 52.9573 75.8963 52.4904 75.4293C52.0234 74.9623 51.3901 74.7 50.7297 74.7H17.9115C17.2511 74.7 16.6177 74.9623 16.1508 75.4293C15.6838 75.8963 15.4215 76.5296 15.4215 77.19C15.4215 77.8504 15.6838 78.4837 16.1508 78.9507C16.6177 79.4177 17.2511 79.68 17.9115 79.68Z" fill="black"/>
</svg>
