<svg width="597" height="93" viewBox="0 0 597 93" fill="none" xmlns="http://www.w3.org/2000/svg">
<path fill-rule="evenodd" clip-rule="evenodd" d="M529.486 89.9836L547.966 3.42709H520.186L514.841 27.7865L502.209 3.42709H469.56L488.874 40.5228L452.32 86.7887L452.762 89.9836H487.471L507.669 61.6674L501.643 89.9836H529.486Z" fill="#FEFEFE"/>
<path fill-rule="evenodd" clip-rule="evenodd" d="M556.406 9.90068L542.038 74.8715L549.603 89.9836H582.208L560.963 47.5708L596.404 3.42709H561.38L556.406 9.90068Z" fill="#FEFEFE"/>
<path fill-rule="evenodd" clip-rule="evenodd" d="M309.954 67.108L324.287 2.86584C306.048 4.47101 288.061 10.4321 281.509 50.4176C276.009 78.7312 287.532 88.5069 310.251 90.9073C336.492 91.1677 354.145 88.6906 363.599 56.8447H331.894C330.113 61.2637 327.478 66.6216 320.301 67.108C319.611 67.1549 318.879 67.1564 318.101 67.108H309.954Z" fill="#FEFEFE"/>
<path fill-rule="evenodd" clip-rule="evenodd" d="M333.836 2.26336L326.465 36.566L367.884 36.8098C368.031 35.8392 368.174 34.8512 368.313 33.8455C371.821 10.4294 349.706 2.19041 333.836 2.26336Z" fill="#FEFEFE"/>
<path fill-rule="evenodd" clip-rule="evenodd" d="M246.563 3.42709H206.697L188.175 89.9836H220.345L234.153 26.5933H243.729L235.931 62.8447C237.33 62.9357 238.774 62.9803 240.264 62.9754C264.897 62.9754 275.841 49.3544 278.648 30.896C280.06 12.3373 265.527 3.42709 246.563 3.42709Z" fill="#FEFEFE"/>
<path fill-rule="evenodd" clip-rule="evenodd" d="M130.527 67.108L144.881 2.64621C116.435 5.21969 109.604 20.3684 103.264 47.0761C94.8644 79.4651 111.068 88.7507 134.887 91.1507C172.206 91.7497 182.873 72.7995 188 38.1942C193.067 11.5202 170.271 3.44748 154.554 2.25693L140.394 67.108H130.527Z" fill="#FEFEFE"/>
<path fill-rule="evenodd" clip-rule="evenodd" d="M57.8266 67.108L71.8955 0.954132H43.487L41.2412 11.4862C8.95123 16.1482 0.0553612 39.627 0.0553612 48.9904C0.0534714 55.5736 1.20925 70.3436 17.3044 77.5776L28.7654 26.5933H38.0196L23.9749 92.4565H52.4358L54.8532 81.0888C80.927 77.8063 93.6485 63.6486 96.5255 46.7053C98.1054 31.4474 92.0748 20.1677 78.5002 14.5627L67.1106 67.108H57.8266Z" fill="#FEFEFE"/>
<path d="M427.733 22.3935L417.95 40.8913V40.8909L427.733 22.3935Z" fill="#2B2A29"/>
<path fill-rule="evenodd" clip-rule="evenodd" d="M429.612 79.4788L421.181 78.7312H421.236L429.612 79.4788ZM421.181 78.7312L422.952 89.9836L449.8 89.9783L452.32 86.7887L440.808 3.42709H405.062L356.544 89.9836H373.851H384.511H386.666L392.519 78.7312H392.588L415.455 35.2829L415.568 36.1321L416.553 43.5324L417.391 49.8333L417.633 51.6482L403.352 78.7312H421.181Z" fill="#FFDD00"/>
</svg>
